# Blender v2.77 (sub 0) OBJ File: 'note.blend'
# www.blender.org
mtllib note.mtl
o Mesh41_Componente_4_3_Group26_Group24_Model
v 0.028544 0.347641 -0.032301
v 0.045964 0.347641 0.032700
v -0.036466 0.347641 -0.014900
v -0.041215 0.347641 0.021200
v -0.019046 0.347641 0.050100
v 0.017065 0.347641 0.054901
v -0.007565 0.347641 -0.037100
v 0.028544 -0.073058 -0.032301
v -0.007565 -0.085359 -0.037100
v 0.048564 -0.061358 -0.013700
v 0.050714 0.347641 -0.003401
v 0.045964 -0.080158 0.032700
v 0.050714 -0.065859 -0.003401
v 0.017065 -0.085958 0.054901
v 0.007154 -0.088559 0.063700
v -0.020016 -0.088559 0.050301
v -0.042736 -0.088559 0.039000
v -0.041615 -0.088559 0.021700
v -0.039145 -0.088559 -0.016499
v 0.015824 -0.088559 -0.070400
v -0.048836 -0.153958 -0.027201
v 0.028904 -0.153958 -0.103399
v -0.053916 -0.153958 0.051300
v 0.016644 -0.153958 0.086199
v -0.045196 -0.193158 0.040501
v -0.040366 -0.202259 -0.021599
v 0.048564 -0.246558 -0.013700
v 0.010984 -0.202259 0.067301
v 0.081304 -0.219459 0.042999
v 0.136274 -0.219459 -0.010799
v 0.139864 -0.219459 -0.066399
v 0.089964 -0.219459 -0.091000
v 0.015824 -0.219459 -0.070400
v 0.133764 -0.153958 -0.132599
v 0.089964 -0.088559 -0.091000
v 0.139864 -0.088559 -0.066399
v 0.136274 -0.088559 -0.010799
v 0.081304 -0.088559 0.042999
v 0.121504 -0.153958 0.057001
v 0.199244 -0.153958 -0.019199
v 0.204324 -0.153958 -0.097799
v 0.003604 0.333367 -0.005228
vt -0.1014 14.2656
vt -0.1014 4.1655
vt 0.7729 3.8711
vt 0.7729 14.2656
vt -2.2872 14.2656
vt -2.9441 4.4461
vt -2.2872 4.1655
vt -3.4053 4.4736
vt -2.7574 14.2936
vt -3.6317 14.2936
vt -5.2907 14.2656
vt -5.2907 3.9949
vt -4.4163 4.3389
vt -4.4163 14.2656
vt -4.1065 14.2656
vt -4.1065 3.8552
vt -3.2322 3.9949
vt -3.2322 14.2656
vt -4.4110 14.2656
vt -4.7301 3.7950
vt -4.4110 3.8552
vt 2.0004 14.1028
vt 1.1537 3.6280
vt 1.8812 3.6280
vt -0.7954 3.7909
vt 0.1014 14.2615
vt -0.7729 14.2615
vt 1.1537 3.7871
vt 1.1727 14.2577
vt 0.5452 3.7871
vt 5.6166 3.6917
vt 5.8447 14.1786
vt 5.1989 3.6917
vt 2.7606 3.7884
vt 3.6317 14.2590
vt 2.7574 14.2590
vt 4.4163 14.2645
vt 5.3033 3.7940
vt 5.2907 14.2645
vt 5.1989 3.7838
vt 4.3144 14.2546
vt 4.2805 3.7838
vt 4.1345 3.8087
vt 4.1065 14.2795
vt 3.2322 14.2795
vt 3.9633 3.7950
vt 3.0584 14.2656
vt 3.0584 3.8711
vt 2.5061 2.9228
vt 4.3539 2.9228
vt 3.4666 3.1163
vt 2.9274 3.8649
vt 2.8978 4.5786
vt 4.3401 2.4312
vt 4.3539 4.0409
vt 2.5061 4.0409
vt 1.7268 2.4312
vt 5.9284 1.8839
vt 5.6166 3.4754
vt 5.1989 3.4754
vt 4.2805 3.4754
vt 4.0390 1.8839
vt 0.4355 0.6808
vt 2.3250 0.6808
vt 1.8812 2.2988
vt 1.1537 2.2988
vt 0.5452 2.2988
vt 0.4355 4.1501
vt 0.5074 3.1556
vt 2.3250 4.1501
vt 5.9284 2.5777
vt 4.0390 2.5777
vt 5.6544 1.6191
vt 4.1352 1.3764
vt 5.6297 1.5985
vt 4.0119 2.5531
vt 4.1536 0.6984
vt 4.9616 3.4823
vt 3.5270 3.0084
vt 2.8856 2.7415
vt 3.5123 5.0514
vt 2.0776 5.5254
vt 0.6267 3.7075
vt 1.5808 5.1163
vt -0.0185 6.0124
vt -2.8978 2.8302
vt -1.4416 4.4860
vt -3.2894 4.4860
vt -4.2124 0.3419
vt -2.8082 2.5459
vt -4.1442 2.5459
vt -1.9494 -3.5839
vt -2.0175 -1.3799
vt -3.3535 -1.3799
vt 1.0524 -3.7646
vt 1.4441 -2.1088
vt -0.4038 -2.1088
vt 3.8684 -1.5122
vt 4.5136 0.7927
vt 2.9143 -0.1034
vt 2.4925 0.2896
vt 4.2759 0.7141
vt 1.7163 1.9007
vt 4.3401 1.9341
vt 1.7268 1.9341
vt 4.2886 0.7522
vt 1.4441 -0.4228
vt 0.9287 1.2897
vt -1.6846 1.2897
vt -0.4038 -0.4228
vt 0.9287 2.7915
vt 1.4441 4.5040
vt -0.4038 4.5040
vt -1.6846 2.7915
vt 1.4441 3.8572
vt 1.0524 5.5130
vt -0.4038 3.8572
vt -2.0175 2.6934
vt -1.9494 4.8974
vt -3.3535 2.6934
vt -2.8082 -1.2323
vt -4.2124 0.9716
vt -4.1442 -1.2323
vt -1.4416 -2.7376
vt -2.8978 -1.0818
vt -3.2894 -2.7376
vt -1.4112 -3.1637
vt -2.2223 -3.5188
vt -2.5086 -3.6720
vt -0.6607 -3.6720
vt -1.0524 -2.0162
vt -1.0686 -2.2888
vt 0.1791 -0.0665
vt -0.6607 1.6097
vt -2.5086 1.6097
vt -2.4341 -0.0665
vt -0.2213 -0.8528
vt -1.4416 0.9659
vt -3.2894 0.9659
vt -2.8346 -0.8528
vt -1.9568 -1.1186
vt -2.8082 1.0512
vt -4.1442 1.0512
vt -3.8463 -1.1186
vt -4.4071 1.8672
vt -2.5177 1.8672
vt -2.0175 3.9464
vt -3.3535 3.9464
vt -4.4071 1.4943
vt -3.3535 -0.5849
vt -2.0175 -0.5849
vt -2.5177 1.4943
vt -1.9568 4.3396
vt -3.8463 4.3396
vt -4.1442 2.1698
vt -2.8082 2.1698
vt -1.4416 2.8768
vt -0.2213 4.6956
vt -2.8346 4.6956
vt -3.2894 2.8768
vt -0.5349 2.5108
vt 0.3177 4.1805
vt -2.3146 2.9508
vt -2.4341 4.4033
vt -2.4432 3.1525
vt 0.1791 4.4033
vt 2.1748 2.6516
vt 2.5075 3.8574
vt 0.6811 2.8792
vt -4.1538 4.4461
vt -4.4050 14.2656
vt -4.4050 4.3389
vn 0.7093 0.6176 -0.3397
vn 0.2367 0.4052 -0.8831
vn -0.2874 0.3826 -0.8781
vn -0.1011 0.1746 -0.9794
vn 0.4398 0.8554 -0.2737
vn 0.3451 0.9361 -0.0684
vn 0.2895 0.5277 0.7986
vn 0.7306 0.3937 0.5579
vn 0.9063 0.4014 0.1325
vn 0.6738 0.6807 0.2876
vn 0.5444 0.3626 0.7564
vn 0.0366 0.3740 0.9267
vn -0.3673 0.0679 0.9276
vn 0.3122 0.8422 0.4395
vn -0.8593 0.1355 0.4933
vn -0.9971 0.0462 0.0598
vn -0.6253 0.6596 0.4169
vn -0.4827 0.4282 -0.7639
vn -0.8038 0.2558 -0.5371
vn -0.3671 0.6864 -0.6277
vn -0.9385 -0.0453 -0.3423
vn -0.5482 -0.0443 -0.8352
vn -0.8696 -0.0419 0.4919
vn -0.1796 -0.0903 0.9796
vn -0.7239 -0.5569 0.4073
vn -0.7519 -0.5535 -0.3582
vn -0.0886 -0.9948 0.0511
vn -0.0759 -0.6237 0.7780
vn 0.2893 -0.7267 0.6230
vn 0.5084 -0.8215 0.2582
vn 0.4029 -0.8837 -0.2381
vn 0.0311 -0.7982 -0.6016
vn -0.4104 -0.6829 -0.6044
vn 0.0566 -0.0000 -0.9984
vn 0.0311 0.7982 -0.6016
vn 0.4029 0.8837 -0.2381
vn 0.5084 0.8215 0.2582
vn 0.3366 0.7314 0.5931
vn 0.4405 -0.0836 0.8939
vn 0.8944 -0.0000 0.4472
vn 0.8588 0.0000 -0.5123
usemtl M_0075_ForestGreen
s 1
f 1/1/1 8/2/2 9/3/3 7/4/4
f 1/5/1 10/6/5 8/7/2
f 10/8/5 1/9/1 11/10/6
f 2/11/7 12/12/8 13/13/9 11/14/6
f 6/15/10 14/16/11 12/17/8 2/18/7
f 6/19/10 15/20/12 14/21/11
f 6/22/10 16/23/13 15/24/12
f 16/25/13 6/26/10 5/27/14
f 16/28/13 5/29/14 17/30/15
f 17/31/15 5/32/14 18/33/16
f 18/34/16 5/35/14 4/36/17
f 3/37/18 18/38/16 4/39/17
f 18/40/16 3/41/18 19/42/19
f 19/43/19 3/44/18 7/45/4
f 19/46/19 7/47/4 9/48/3
f 20/49/20 19/50/19 9/51/3 8/52/2 10/53/5
f 21/54/21 19/55/19 20/56/20 22/57/22
f 23/58/23 17/59/15 18/60/16 19/61/19 21/62/21
f 23/63/23 24/64/24 15/65/12 16/66/13 17/67/15
f 23/68/23 25/69/25 24/70/24
f 23/71/23 21/72/21 25/73/25
f 26/74/26 25/75/25 21/76/21
f 27/77/27 25/78/25 26/79/26
f 27/80/27 28/81/28 25/82/25
f 27/83/27 29/84/29 28/85/28
f 27/86/27 30/87/30 29/88/29
f 27/89/27 31/90/31 30/91/30
f 27/92/27 32/93/32 31/94/31
f 27/95/27 33/96/33 32/97/32
f 27/98/27 26/99/26 33/100/33
f 33/101/33 26/102/26 22/103/22
f 21/104/21 22/105/22 26/106/26
f 33/107/33 22/108/22 34/109/34 32/110/32
f 22/111/22 20/112/20 35/113/35 34/114/34
f 20/115/20 10/116/5 35/117/35
f 35/118/35 10/119/5 36/120/36
f 36/121/36 10/122/5 37/123/37
f 37/124/37 10/125/5 38/126/38
f 12/127/8 14/128/11 15/129/12 38/130/38 10/131/5 13/132/9
f 39/133/39 38/134/38 15/135/12 24/136/24
f 40/137/40 37/138/37 38/139/38 39/140/39
f 41/141/41 36/142/36 37/143/37 40/144/40
f 41/145/41 34/146/34 35/147/35 36/148/36
f 41/149/41 31/150/31 32/151/32 34/152/34
f 41/153/41 40/154/40 30/155/30 31/156/31
f 30/157/30 40/158/40 39/159/39 29/160/29
f 29/161/29 39/162/39 28/163/28
f 24/164/24 28/165/28 39/166/39
f 28/167/28 24/168/24 25/169/25
f 10/170/5 11/171/6 13/172/9
f 2/18/7 11/14/6 5/35/14
f 7/4/4 3/37/18 1/9/1
f 4/39/17 5/35/14 1/9/1
f 6/26/10 2/18/7 5/35/14
f 11/14/6 1/9/1 5/35/14
f 3/37/18 4/39/17 1/9/1
