# Blender v2.75 (sub 0) OBJ File: 'hour_hand.blend'
# www.blender.org
mtllib hour_hand.mtl
o Cylinder.002_Cylinder.003
v -0.150075 0.000597 4.114635
v -0.279320 -0.026869 4.114634
v -0.149354 0.015262 4.114635
v -0.275285 -0.054069 4.114634
v -0.147200 0.029785 4.114635
v -0.268604 -0.080743 4.114634
v -0.143632 0.044028 4.114635
v -0.259340 -0.106634 4.114635
v -0.138686 0.057852 4.114635
v -0.247583 -0.131492 4.114635
v -0.132409 0.071124 4.114635
v -0.233446 -0.155078 4.114635
v -0.124860 0.083718 4.114635
v -0.217065 -0.177165 4.114635
v -0.116114 0.095510 4.114635
v -0.198599 -0.197539 4.114635
v -0.106254 0.106389 4.114635
v -0.178224 -0.216006 4.114635
v -0.095375 0.116249 4.114635
v -0.156137 -0.232387 4.114635
v -0.083582 0.124995 4.114635
v -0.132551 -0.246524 4.114635
v -0.070989 0.132544 4.114635
v -0.107693 -0.258281 4.114635
v -0.057716 0.138821 4.114635
v -0.081802 -0.267544 4.114635
v -0.043892 0.143767 4.114635
v -0.055128 -0.274226 4.114635
v -0.029650 0.147335 4.114635
v -0.027927 -0.278261 4.114635
v -0.015127 0.149489 4.114635
v -0.000462 -0.279610 4.114635
v -0.000462 0.150210 4.114635
v 0.027003 -0.278261 4.114635
v 0.014202 0.149489 4.114635
v 0.054203 -0.274226 4.114636
v 0.028726 0.147335 4.114635
v 0.080877 -0.267544 4.114636
v 0.042968 0.143767 4.114635
v 0.106768 -0.258281 4.114636
v 0.056792 0.138821 4.114636
v 0.131626 -0.246524 4.114636
v 0.070065 0.132544 4.114636
v 0.155212 -0.232387 4.114636
v 0.082658 0.124995 4.114636
v 0.177299 -0.216006 4.114636
v 0.094451 0.116249 4.114636
v 0.197674 -0.197540 4.114636
v 0.105330 0.106389 4.114636
v 0.216141 -0.177165 4.114636
v 0.115190 0.095510 4.114636
v 0.232521 -0.155078 4.114636
v 0.123936 0.083717 4.114636
v 0.246658 -0.131492 4.114636
v 0.131484 0.071124 4.114636
v 0.258415 -0.106634 4.114636
v 0.137762 0.057851 4.114636
v 0.267679 -0.080743 4.114637
v 0.142708 0.044027 4.114636
v 0.274361 -0.054069 4.114637
v 0.146275 0.029785 4.114636
v 0.278396 -0.026868 4.114637
v 0.148430 0.015262 4.114636
v 0.279745 0.000597 4.114637
v 0.149150 0.000597 4.114636
v 0.278396 0.028062 4.114637
v 0.148430 -0.014067 4.114636
v 0.274361 0.055263 4.114637
v 0.146275 -0.028591 4.114636
v 0.267679 0.081937 4.114637
v 0.142708 -0.042833 4.114636
v 0.258416 0.107828 4.114636
v 0.137761 -0.056657 4.114636
v 0.246659 0.132686 4.114636
v 0.131484 -0.069930 4.114636
v 0.232522 0.156272 4.114636
v 0.123936 -0.082523 4.114636
v 0.216141 0.178359 4.114636
v 0.115189 -0.094316 4.114636
v 0.197674 0.198734 4.114636
v 0.105329 -0.105195 4.114636
v 0.177300 0.217200 4.114636
v 0.094451 -0.115055 4.114636
v 0.155213 0.233581 4.114636
v 0.082658 -0.123801 4.114636
v 0.131627 0.247718 4.114636
v 0.070064 -0.131349 4.114636
v 0.106769 0.259475 4.114636
v 0.056792 -0.137627 4.114636
v 0.080878 0.268739 4.114636
v 0.042968 -0.142573 4.114635
v 0.054204 0.275420 4.114636
v 0.028725 -0.146140 4.114635
v 0.027003 0.279455 4.114635
v 0.014202 -0.148295 4.114635
v -0.000462 0.280805 4.114635
v -0.000462 -0.149015 4.114635
v -0.027927 0.279455 4.114635
v -0.015127 -0.148295 4.114635
v -0.055128 0.275421 4.114635
v -0.029650 -0.146140 4.114635
v -0.081802 0.268739 4.114635
v -0.043892 -0.142573 4.114635
v -0.107693 0.259475 4.114635
v -0.057716 -0.137626 4.114635
v -0.132551 0.247718 4.114635
v -0.070989 -0.131349 4.114635
v -0.156137 0.233581 4.114635
v -0.083582 -0.123801 4.114635
v -0.178224 0.217201 4.114635
v -0.095375 -0.115055 4.114635
v -0.198599 0.198734 4.114635
v -0.106254 -0.105195 4.114635
v -0.217065 0.178359 4.114635
v -0.116114 -0.094316 4.114635
v -0.233446 0.156272 4.114635
v -0.124860 -0.082523 4.114635
v -0.247583 0.132686 4.114635
v -0.132408 -0.069930 4.114635
v -0.259340 0.107828 4.114635
v -0.138686 -0.056657 4.114635
v -0.268604 0.081937 4.114634
v -0.143632 -0.042833 4.114635
v -0.275285 0.055263 4.114634
v -0.147200 -0.028591 4.114635
v -0.279320 0.028063 4.114634
v -0.149354 -0.014068 4.114635
v -0.280670 0.000598 4.114634
v -0.150083 0.000600 4.940451
v -0.279329 -0.026866 4.940450
v -0.149363 0.015265 4.940451
v -0.275294 -0.054066 4.940450
v -0.147208 0.029788 4.940451
v -0.268612 -0.080740 4.940450
v -0.143641 0.044030 4.940451
v -0.259348 -0.106631 4.940450
v -0.138694 0.057854 4.940451
v -0.247591 -0.131489 4.940450
v -0.132417 0.071127 4.940451
v -0.233454 -0.155075 4.940450
v -0.124869 0.083720 4.940451
v -0.217074 -0.177162 4.940450
v -0.116122 0.095513 4.940451
v -0.198607 -0.197537 4.940450
v -0.106262 0.106392 4.940451
v -0.178232 -0.216003 4.940450
v -0.095384 0.116252 4.940451
v -0.156145 -0.232384 4.940451
v -0.083591 0.124998 4.940451
v -0.132559 -0.246521 4.940451
v -0.070997 0.132546 4.940451
v -0.107701 -0.258278 4.940451
v -0.057725 0.138824 4.940451
v -0.081810 -0.267541 4.940451
v -0.043901 0.143770 4.940451
v -0.055136 -0.274223 4.940451
v -0.029658 0.147338 4.940451
v -0.027936 -0.278258 4.940451
v -0.015135 0.149492 4.940451
v -0.000471 -0.279607 4.940451
v -0.000471 0.150212 4.940451
v 0.026994 -0.278258 4.940451
v 0.014194 0.149492 4.940451
v 0.054195 -0.274223 4.940452
v 0.028717 0.147338 4.940451
v 0.080869 -0.267542 4.940452
v 0.042960 0.143770 4.940451
v 0.106760 -0.258278 4.940452
v 0.056784 0.138824 4.940452
v 0.131618 -0.246521 4.940452
v 0.070056 0.132546 4.940452
v 0.155204 -0.232384 4.940452
v 0.082650 0.124998 4.940452
v 0.177291 -0.216003 4.940452
v 0.094443 0.116252 4.940452
v 0.197665 -0.197537 4.940452
v 0.105321 0.106392 4.940452
v 0.216132 -0.177162 4.940452
v 0.115181 0.095513 4.940452
v 0.232513 -0.155075 4.940452
v 0.123928 0.083720 4.940452
v 0.246650 -0.131489 4.940452
v 0.131476 0.071127 4.940452
v 0.258407 -0.106631 4.940452
v 0.137753 0.057854 4.940452
v 0.267671 -0.080740 4.940453
v 0.142699 0.044030 4.940452
v 0.274352 -0.054066 4.940453
v 0.146267 0.029788 4.940452
v 0.278387 -0.026865 4.940453
v 0.148421 0.015265 4.940452
v 0.279737 0.000600 4.940453
v 0.149142 0.000600 4.940452
v 0.278387 0.028065 4.940453
v 0.148421 -0.014065 4.940452
v 0.274353 0.055266 4.940453
v 0.146267 -0.028588 4.940452
v 0.267671 0.081940 4.940453
v 0.142699 -0.042830 4.940452
v 0.258407 0.107831 4.940452
v 0.137753 -0.056654 4.940452
v 0.246650 0.132689 4.940452
v 0.131476 -0.069927 4.940452
v 0.232513 0.156275 4.940452
v 0.123927 -0.082520 4.940452
v 0.216133 0.178362 4.940452
v 0.115181 -0.094313 4.940452
v 0.197666 0.198736 4.940452
v 0.105321 -0.105192 4.940452
v 0.177291 0.217203 4.940452
v 0.094442 -0.115052 4.940452
v 0.155204 0.233584 4.940452
v 0.082649 -0.123798 4.940452
v 0.131618 0.247721 4.940452
v 0.070056 -0.131346 4.940452
v 0.106760 0.259478 4.940452
v 0.056783 -0.137624 4.940452
v 0.080870 0.268742 4.940452
v 0.042959 -0.142570 4.940451
v 0.054195 0.275423 4.940452
v 0.028717 -0.146137 4.940451
v 0.026995 0.279458 4.940451
v 0.014194 -0.148292 4.940451
v -0.000470 0.280807 4.940451
v -0.000471 -0.149012 4.940451
v -0.027936 0.279458 4.940451
v -0.015135 -0.148292 4.940451
v -0.055136 0.275423 4.940451
v -0.029659 -0.146137 4.940451
v -0.081810 0.268742 4.940451
v -0.043901 -0.142570 4.940451
v -0.107701 0.259478 4.940451
v -0.057725 -0.137624 4.940451
v -0.132559 0.247721 4.940451
v -0.070997 -0.131346 4.940451
v -0.156145 0.233584 4.940451
v -0.083591 -0.123798 4.940451
v -0.178232 0.217203 4.940450
v -0.095384 -0.115052 4.940451
v -0.198607 0.198737 4.940450
v -0.106262 -0.105192 4.940451
v -0.217074 0.178362 4.940450
v -0.116122 -0.094313 4.940451
v -0.233454 0.156275 4.940450
v -0.124869 -0.082520 4.940451
v -0.247591 0.132689 4.940450
v -0.132417 -0.069927 4.940451
v -0.259348 0.107831 4.940450
v -0.138694 -0.056654 4.940451
v -0.268612 0.081940 4.940450
v -0.143641 -0.042830 4.940451
v -0.275294 0.055266 4.940450
v -0.147208 -0.028588 4.940451
v -0.279329 0.028065 4.940450
v -0.149362 -0.014065 4.940451
v -0.280678 0.000600 4.940450
vn 0.000000 -0.000000 -1.000000
vn 0.000000 0.000000 1.000000
vn 0.998800 0.049100 0.000000
vn 0.941500 -0.336900 0.000000
vn -0.243000 0.970000 -0.000000
vn -0.857700 -0.514100 -0.000000
vn 0.336900 -0.941500 0.000000
vn 0.671600 -0.741000 0.000000
vn -0.514100 -0.857700 -0.000000
vn 0.595700 0.803200 0.000000
vn -0.989200 -0.146700 -0.000000
vn -0.904000 0.427600 -0.000000
vn -0.741000 0.671600 -0.000000
vn 0.049100 0.998800 -0.000000
vn 0.803200 0.595700 0.000000
vn -0.803200 -0.595700 -0.000000
vn 0.740900 -0.671600 0.000000
vn 0.514100 0.857700 0.000000
vn -0.941500 0.336900 -0.000000
vn -0.049100 -0.998800 0.000000
vn -0.146700 -0.989200 0.000000
vn 0.989200 0.146700 0.000000
vn -0.336900 0.941500 -0.000000
vn 0.049100 -0.998800 0.000000
vn 0.970000 0.243000 0.000000
vn 0.904000 -0.427600 0.000000
vn -0.427600 0.904000 -0.000000
vn -0.741000 -0.671600 -0.000000
vn 0.243000 -0.970000 0.000000
vn 0.803200 -0.595700 0.000000
vn -0.595700 -0.803200 -0.000000
vn 0.998800 -0.049100 0.000000
vn 0.427600 0.904000 0.000000
vn -0.998800 -0.049100 -0.000000
vn -0.970000 0.243000 -0.000000
vn -0.671600 0.741000 -0.000000
vn 0.146700 0.989200 -0.000000
vn 0.857700 0.514100 0.000000
vn -0.671600 -0.741000 -0.000000
vn 0.857700 -0.514100 0.000000
vn 0.336900 0.941500 0.000000
vn 0.595700 -0.803200 0.000000
vn -0.989200 0.146700 -0.000000
vn 0.146700 -0.989200 0.000000
vn -0.243000 -0.970000 0.000000
vn 0.941500 0.336900 0.000000
vn -0.904000 -0.427600 -0.000000
vn -0.514100 0.857700 -0.000000
vn 0.904000 0.427600 0.000000
vn -0.595700 0.803200 -0.000000
vn 0.243000 0.970000 -0.000000
vn -0.998800 0.049100 -0.000000
vn 0.989200 -0.146700 0.000000
vn 0.514100 -0.857700 0.000000
vn -0.336900 -0.941500 -0.000000
vn -0.941500 -0.336900 -0.000000
vn -0.857700 0.514100 -0.000000
vn -0.146700 0.989200 -0.000000
vn 0.671600 0.741000 0.000000
vn -0.970000 -0.243000 -0.000000
vn 0.427600 -0.904000 0.000000
vn -0.427600 -0.904000 -0.000000
vn 0.970000 -0.243000 0.000000
vn -0.049100 0.998800 -0.000000
vn 0.741000 0.671600 0.000000
vn -0.803200 0.595700 -0.000000
vn 0.741000 -0.671600 0.000000
usemtl Material.010
s off
f 11//1 118//1 116//1 13//1
f 85//1 44//1 42//1 87//1
f 75//1 54//1 52//1 77//1
f 65//1 64//1 62//1 67//1
f 55//1 74//1 72//1 57//1
f 45//1 84//1 82//1 47//1
f 119//1 10//1 8//1 121//1
f 35//1 94//1 92//1 37//1
f 109//1 20//1 18//1 111//1
f 25//1 104//1 102//1 27//1
f 1//1 128//1 126//1 3//1
f 99//1 30//1 28//1 101//1
f 89//1 40//1 38//1 91//1
f 15//1 114//1 112//1 17//1
f 79//1 50//1 48//1 81//1
f 5//1 124//1 122//1 7//1
f 69//1 60//1 58//1 71//1
f 59//1 70//1 68//1 61//1
f 49//1 80//1 78//1 51//1
f 123//1 6//1 4//1 125//1
f 39//1 90//1 88//1 41//1
f 113//1 16//1 14//1 115//1
f 29//1 100//1 98//1 31//1
f 103//1 26//1 24//1 105//1
f 93//1 36//1 34//1 95//1
f 19//1 110//1 108//1 21//1
f 9//1 120//1 118//1 11//1
f 83//1 46//1 44//1 85//1
f 73//1 56//1 54//1 75//1
f 63//1 66//1 64//1 65//1
f 53//1 76//1 74//1 55//1
f 127//1 2//1 128//1 1//1
f 43//1 86//1 84//1 45//1
f 117//1 12//1 10//1 119//1
f 33//1 96//1 94//1 35//1
f 107//1 22//1 20//1 109//1
f 97//1 32//1 30//1 99//1
f 23//1 106//1 104//1 25//1
f 87//1 42//1 40//1 89//1
f 13//1 116//1 114//1 15//1
f 77//1 52//1 50//1 79//1
f 3//1 126//1 124//1 5//1
f 67//1 62//1 60//1 69//1
f 57//1 72//1 70//1 59//1
f 47//1 82//1 80//1 49//1
f 121//1 8//1 6//1 123//1
f 37//1 92//1 90//1 39//1
f 111//1 18//1 16//1 113//1
f 27//1 102//1 100//1 29//1
f 101//1 28//1 26//1 103//1
f 91//1 38//1 36//1 93//1
f 17//1 112//1 110//1 19//1
f 7//1 122//1 120//1 9//1
f 81//1 48//1 46//1 83//1
f 71//1 58//1 56//1 73//1
f 61//1 68//1 66//1 63//1
f 51//1 78//1 76//1 53//1
f 125//1 4//1 2//1 127//1
f 41//1 88//1 86//1 43//1
f 115//1 14//1 12//1 117//1
f 31//1 98//1 96//1 33//1
f 105//1 24//1 22//1 107//1
f 95//1 34//1 32//1 97//1
f 21//1 108//1 106//1 23//1
f 213//2 215//2 170//2 172//2
f 139//2 141//2 244//2 246//2
f 203//2 205//2 180//2 182//2
f 193//2 195//2 190//2 192//2
f 183//2 185//2 200//2 202//2
f 173//2 175//2 210//2 212//2
f 247//2 249//2 136//2 138//2
f 163//2 165//2 220//2 222//2
f 237//2 239//2 146//2 148//2
f 153//2 155//2 230//2 232//2
f 129//2 131//2 254//2 256//2
f 227//2 229//2 156//2 158//2
f 217//2 219//2 166//2 168//2
f 143//2 145//2 240//2 242//2
f 207//2 209//2 176//2 178//2
f 133//2 135//2 250//2 252//2
f 197//2 199//2 186//2 188//2
f 187//2 189//2 196//2 198//2
f 177//2 179//2 206//2 208//2
f 251//2 253//2 132//2 134//2
f 167//2 169//2 216//2 218//2
f 241//2 243//2 142//2 144//2
f 157//2 159//2 226//2 228//2
f 231//2 233//2 152//2 154//2
f 221//2 223//2 162//2 164//2
f 147//2 149//2 236//2 238//2
f 137//2 139//2 246//2 248//2
f 211//2 213//2 172//2 174//2
f 201//2 203//2 182//2 184//2
f 191//2 193//2 192//2 194//2
f 181//2 183//2 202//2 204//2
f 255//2 129//2 256//2 130//2
f 171//2 173//2 212//2 214//2
f 245//2 247//2 138//2 140//2
f 161//2 163//2 222//2 224//2
f 235//2 237//2 148//2 150//2
f 225//2 227//2 158//2 160//2
f 151//2 153//2 232//2 234//2
f 215//2 217//2 168//2 170//2
f 141//2 143//2 242//2 244//2
f 205//2 207//2 178//2 180//2
f 131//2 133//2 252//2 254//2
f 195//2 197//2 188//2 190//2
f 185//2 187//2 198//2 200//2
f 175//2 177//2 208//2 210//2
f 249//2 251//2 134//2 136//2
f 165//2 167//2 218//2 220//2
f 239//2 241//2 144//2 146//2
f 155//2 157//2 228//2 230//2
f 229//2 231//2 154//2 156//2
f 219//2 221//2 164//2 166//2
f 145//2 147//2 238//2 240//2
f 135//2 137//2 248//2 250//2
f 209//2 211//2 174//2 176//2
f 199//2 201//2 184//2 186//2
f 189//2 191//2 194//2 196//2
f 179//2 181//2 204//2 206//2
f 253//2 255//2 130//2 132//2
f 169//2 171//2 214//2 216//2
f 243//2 245//2 140//2 142//2
f 159//2 161//2 224//2 226//2
f 233//2 235//2 150//2 152//2
f 223//2 225//2 160//2 162//2
f 149//2 151//2 234//2 236//2
f 64//3 66//3 194//3 192//3
f 7//4 9//4 137//4 135//4
f 100//5 102//5 230//5 228//5
f 10//6 12//6 140//6 138//6
f 25//7 27//7 155//7 153//7
f 46//8 48//8 176//8 174//8
f 43//9 45//9 173//9 171//9
f 82//10 84//10 212//10 210//10
f 61//11 63//11 191//11 189//11
f 118//12 120//12 248//12 246//12
f 79//13 81//13 209//13 207//13
f 97//14 99//14 227//14 225//14
f 115//15 117//15 245//15 243//15
f 12//16 14//16 142//16 140//16
f 48//17 50//17 178//17 176//17
f 84//18 86//18 214//18 212//18
f 17//8 19//8 147//8 145//8
f 120//19 122//19 250//19 248//19
f 30//20 32//20 160//20 158//20
f 35//21 37//21 165//21 163//21
f 66//22 68//22 196//22 194//22
f 53//6 55//6 183//6 181//6
f 102//23 104//23 232//23 230//23
f 71//19 73//19 201//19 199//19
f 89//23 91//23 219//23 217//23
f 107//18 109//18 237//18 235//18
f 125//22 127//22 255//22 253//22
f 32//24 34//24 162//24 160//24
f 68//25 70//25 198//25 196//25
f 9//26 11//26 139//26 137//26
f 104//27 106//27 234//27 232//27
f 14//28 16//28 144//28 142//28
f 27//29 29//29 157//29 155//29
f 50//30 52//30 180//30 178//30
f 45//31 47//31 175//31 173//31
f 1//32 3//32 131//32 129//32
f 86//33 88//33 216//33 214//33
f 63//34 65//34 193//34 191//34
f 122//35 124//35 252//35 250//35
f 81//36 83//36 211//36 209//36
f 99//37 101//37 229//37 227//37
f 117//38 119//38 247//38 245//38
f 16//39 18//39 146//39 144//39
f 52//40 54//40 182//40 180//40
f 88//41 90//41 218//41 216//41
f 19//42 21//42 149//42 147//42
f 124//43 126//43 254//43 252//43
f 34//44 36//44 164//44 162//44
f 37//45 39//45 167//45 165//45
f 70//46 72//46 200//46 198//46
f 55//47 57//47 185//47 183//47
f 106//48 108//48 236//48 234//48
f 73//12 75//12 203//12 201//12
f 91//5 93//5 221//5 219//5
f 109//10 111//10 239//10 237//10
f 128//34 2//34 130//34 256//34
f 127//3 1//3 129//3 255//3
f 36//29 38//29 166//29 164//29
f 11//40 13//40 141//40 139//40
f 72//49 74//49 202//49 200//49
f 108//50 110//50 238//50 236//50
f 18//31 20//31 148//31 146//31
f 29//44 31//44 159//44 157//44
f 54//26 56//26 184//26 182//26
f 47//39 49//39 177//39 175//39
f 90//51 92//51 220//51 218//51
f 65//52 67//52 195//52 193//52
f 126//52 128//52 256//52 254//52
f 83//50 85//50 213//50 211//50
f 101//51 103//51 231//51 229//51
f 119//49 121//49 249//49 247//49
f 20//9 22//9 150//9 148//9
f 56//4 58//4 186//4 184//4
f 3//53 5//53 133//53 131//53
f 92//37 94//37 222//37 220//37
f 2//11 4//11 132//11 130//11
f 21//54 23//54 151//54 149//54
f 38//7 40//7 168//7 166//7
f 39//55 41//55 169//55 167//55
f 74//38 76//38 204//38 202//38
f 57//56 59//56 187//56 185//56
f 110//36 112//36 240//36 238//36
f 75//57 77//57 205//57 203//57
f 93//58 95//58 223//58 221//58
f 111//59 113//59 241//59 239//59
f 4//60 6//60 134//60 132//60
f 40//61 42//61 170//61 168//61
f 76//15 78//15 206//15 204//15
f 13//30 15//30 143//30 141//30
f 112//13 114//13 242//13 240//13
f 22//62 24//62 152//62 150//62
f 31//24 33//24 161//24 159//24
f 58//63 60//63 188//63 186//63
f 49//28 51//28 179//28 177//28
f 94//14 96//14 224//14 222//14
f 67//43 69//43 197//43 195//43
f 85//48 87//48 215//48 213//48
f 103//41 105//41 233//41 231//41
f 121//46 123//46 251//46 249//46
f 24//55 26//55 154//55 152//55
f 60//53 62//53 190//53 188//53
f 5//63 7//63 135//63 133//63
f 96//64 98//64 226//64 224//64
f 6//56 8//56 136//56 134//56
f 23//61 25//61 153//61 151//61
f 42//54 44//54 172//54 170//54
f 41//62 43//62 171//62 169//62
f 78//65 80//65 208//65 206//65
f 59//60 61//60 189//60 187//60
f 114//66 116//66 244//66 242//66
f 77//66 79//66 207//66 205//66
f 95//64 97//64 225//64 223//64
f 113//65 115//65 243//65 241//65
f 8//47 10//47 138//47 136//47
f 44//42 46//42 174//42 172//42
f 80//59 82//59 210//59 208//59
f 15//67 17//67 145//67 143//67
f 116//57 118//57 246//57 244//57
f 26//45 28//45 156//45 154//45
f 33//20 35//20 163//20 161//20
f 62//32 64//32 192//32 190//32
f 51//16 53//16 181//16 179//16
f 98//58 100//58 228//58 226//58
f 69//35 71//35 199//35 197//35
f 87//27 89//27 217//27 215//27
f 105//33 107//33 235//33 233//33
f 123//25 125//25 253//25 251//25
f 28//21 30//21 158//21 156//21
o Cube.002_Cube.003
v -1.351274 1.163860 4.902718
v -0.101926 0.190366 4.902726
v -0.099686 0.193061 4.820727
v -1.349035 1.166555 4.820719
v -1.449521 1.037773 4.902717
v -0.200173 0.064279 4.902725
v -0.197933 0.066974 4.820726
v -1.447282 1.040468 4.820718
vn -0.000000 0.000000 1.000000
vn 0.788800 -0.614600 0.001300
vn 0.000000 0.000000 -1.000000
vn -0.788800 0.614600 -0.001300
vn 0.614100 0.788100 0.042700
vn -0.614100 -0.788100 -0.042700
usemtl Material.018
s off
f 261//68 262//68 258//68 257//68
f 262//69 263//69 259//69 258//69
f 263//70 264//70 260//70 259//70
f 264//71 261//71 257//71 260//71
f 257//72 258//72 259//72 260//72
f 264//73 263//73 262//73 261//73
