# Blender v2.75 (sub 0) OBJ File: 'minute_hand.blend'
# www.blender.org
mtllib minute_hand.mtl
o Cube.001_Cube.002
v 2.005716 1.435990 1.483499
v 0.089261 -0.022774 1.483491
v 0.089262 -0.022774 1.400754
v 2.005716 1.435990 1.400762
v 1.908901 1.563180 1.483498
v -0.007553 0.104416 1.483490
v -0.007553 0.104416 1.400753
v 1.908901 1.563180 1.400761
vn -0.000000 0.000000 1.000000
vn -0.795700 -0.605700 -0.000000
vn 0.000000 -0.000000 -1.000000
vn 0.795700 0.605700 0.000000
vn 0.605700 -0.795700 0.000000
vn -0.605700 0.795700 -0.000000
usemtl Material.009
s off
f 5//1 6//1 2//1 1//1
f 6//2 7//2 3//2 2//2
f 7//3 8//3 4//3 3//3
f 8//4 5//4 1//4 4//4
f 1//5 2//5 3//5 4//5
f 8//6 7//6 6//6 5//6
o Cylinder.004_Cylinder.005
v -0.065831 -0.000397 -0.066993
v -0.123166 -0.012581 -0.066993
v -0.065511 0.006109 -0.066993
v -0.121376 -0.024648 -0.066993
v -0.064556 0.012551 -0.066993
v -0.118412 -0.036481 -0.066993
v -0.062973 0.018869 -0.066993
v -0.114303 -0.047966 -0.066993
v -0.060779 0.025002 -0.066993
v -0.109087 -0.058994 -0.066993
v -0.057994 0.030890 -0.066993
v -0.102816 -0.069457 -0.066993
v -0.054645 0.036476 -0.066993
v -0.095549 -0.079255 -0.066993
v -0.050765 0.041708 -0.066993
v -0.087357 -0.088293 -0.066993
v -0.046391 0.046534 -0.066993
v -0.078318 -0.096486 -0.066993
v -0.041565 0.050908 -0.066993
v -0.068520 -0.103752 -0.066993
v -0.036334 0.054788 -0.066993
v -0.058057 -0.110024 -0.066993
v -0.030747 0.058136 -0.066993
v -0.047030 -0.115239 -0.066993
v -0.024859 0.060921 -0.066993
v -0.035544 -0.119349 -0.066993
v -0.018727 0.063115 -0.066993
v -0.023711 -0.122313 -0.066993
v -0.012409 0.064698 -0.066993
v -0.011644 -0.124103 -0.066993
v -0.005966 0.065654 -0.066993
v 0.000539 -0.124701 -0.066993
v 0.000540 0.065973 -0.066993
v 0.012723 -0.124103 -0.066993
v 0.007045 0.065654 -0.066993
v 0.024790 -0.122313 -0.066993
v 0.013488 0.064698 -0.066993
v 0.036623 -0.119349 -0.066993
v 0.019806 0.063115 -0.066993
v 0.048109 -0.115239 -0.066993
v 0.025938 0.060921 -0.066993
v 0.059136 -0.110024 -0.066993
v 0.031826 0.058136 -0.066993
v 0.069599 -0.103752 -0.066992
v 0.037413 0.054788 -0.066993
v 0.079397 -0.096486 -0.066992
v 0.042644 0.050908 -0.066993
v 0.088436 -0.088293 -0.066992
v 0.047470 0.046534 -0.066993
v 0.096628 -0.079255 -0.066992
v 0.051845 0.041708 -0.066993
v 0.103895 -0.069457 -0.066992
v 0.055724 0.036476 -0.066993
v 0.110166 -0.058994 -0.066992
v 0.059073 0.030890 -0.066993
v 0.115382 -0.047966 -0.066992
v 0.061858 0.025002 -0.066992
v 0.119491 -0.036481 -0.066992
v 0.064052 0.018869 -0.066992
v 0.122455 -0.024648 -0.066992
v 0.065635 0.012551 -0.066992
v 0.124245 -0.012581 -0.066992
v 0.066590 0.006108 -0.066992
v 0.124844 -0.000397 -0.066992
v 0.066910 -0.000397 -0.066992
v 0.124245 0.011787 -0.066992
v 0.066590 -0.006902 -0.066992
v 0.122455 0.023853 -0.066992
v 0.065635 -0.013345 -0.066992
v 0.119491 0.035686 -0.066992
v 0.064052 -0.019663 -0.066992
v 0.115382 0.047172 -0.066992
v 0.061858 -0.025796 -0.066992
v 0.110166 0.058200 -0.066992
v 0.059073 -0.031684 -0.066993
v 0.103895 0.068663 -0.066992
v 0.055724 -0.037270 -0.066993
v 0.096628 0.078461 -0.066992
v 0.051844 -0.042502 -0.066993
v 0.088436 0.087499 -0.066992
v 0.047470 -0.047328 -0.066993
v 0.079397 0.095691 -0.066992
v 0.042644 -0.051702 -0.066993
v 0.069599 0.102958 -0.066992
v 0.037413 -0.055582 -0.066993
v 0.059136 0.109230 -0.066993
v 0.031826 -0.058930 -0.066993
v 0.048109 0.114445 -0.066993
v 0.025938 -0.061715 -0.066993
v 0.036623 0.118555 -0.066993
v 0.019806 -0.063909 -0.066993
v 0.024790 0.121519 -0.066993
v 0.013488 -0.065492 -0.066993
v 0.012724 0.123309 -0.066993
v 0.007045 -0.066448 -0.066993
v 0.000540 0.123907 -0.066993
v 0.000539 -0.066767 -0.066993
v -0.011644 0.123309 -0.066993
v -0.005966 -0.066448 -0.066993
v -0.023711 0.121519 -0.066993
v -0.012409 -0.065492 -0.066993
v -0.035544 0.118555 -0.066993
v -0.018727 -0.063909 -0.066993
v -0.047030 0.114445 -0.066993
v -0.024859 -0.061715 -0.066993
v -0.058057 0.109230 -0.066993
v -0.030747 -0.058930 -0.066993
v -0.068520 0.102958 -0.066993
v -0.036334 -0.055582 -0.066993
v -0.078318 0.095692 -0.066993
v -0.041565 -0.051702 -0.066993
v -0.087357 0.087499 -0.066993
v -0.046391 -0.047328 -0.066993
v -0.095549 0.078461 -0.066993
v -0.050765 -0.042502 -0.066993
v -0.102816 0.068663 -0.066993
v -0.054645 -0.037270 -0.066993
v -0.109087 0.058200 -0.066993
v -0.057994 -0.031684 -0.066993
v -0.114303 0.047172 -0.066993
v -0.060779 -0.025796 -0.066993
v -0.118412 0.035687 -0.066993
v -0.062973 -0.019663 -0.066993
v -0.121376 0.023854 -0.066993
v -0.064555 -0.013345 -0.066993
v -0.123166 0.011787 -0.066993
v -0.065511 -0.006903 -0.066993
v -0.123765 -0.000397 -0.066993
v -0.065842 -0.000397 1.499029
v -0.123178 -0.012581 1.499029
v -0.065523 0.006109 1.499029
v -0.121388 -0.024648 1.499029
v -0.064567 0.012551 1.499029
v -0.118424 -0.036481 1.499029
v -0.062984 0.018869 1.499029
v -0.114314 -0.047966 1.499029
v -0.060790 0.025002 1.499029
v -0.109098 -0.058994 1.499029
v -0.058005 0.030890 1.499029
v -0.102827 -0.069457 1.499029
v -0.054657 0.036477 1.499029
v -0.095560 -0.079255 1.499029
v -0.050777 0.041708 1.499029
v -0.087368 -0.088293 1.499029
v -0.046403 0.046534 1.499029
v -0.078330 -0.096485 1.499029
v -0.041577 0.050908 1.499029
v -0.068532 -0.103752 1.499029
v -0.036345 0.054788 1.499029
v -0.058068 -0.110023 1.499029
v -0.030759 0.058137 1.499029
v -0.047041 -0.115239 1.499029
v -0.024871 0.060921 1.499029
v -0.035555 -0.119349 1.499029
v -0.018738 0.063116 1.499029
v -0.023722 -0.122313 1.499029
v -0.012420 0.064698 1.499029
v -0.011656 -0.124103 1.499029
v -0.005977 0.065654 1.499029
v 0.000528 -0.124701 1.499029
v 0.000528 0.065973 1.499029
v 0.012712 -0.124103 1.499029
v 0.007034 0.065654 1.499029
v 0.024779 -0.122313 1.499030
v 0.013476 0.064698 1.499029
v 0.036612 -0.119349 1.499030
v 0.019794 0.063116 1.499030
v 0.048097 -0.115239 1.499030
v 0.025927 0.060921 1.499030
v 0.059125 -0.110023 1.499030
v 0.031815 0.058136 1.499030
v 0.069588 -0.103752 1.499030
v 0.037402 0.054788 1.499030
v 0.079386 -0.096485 1.499030
v 0.042633 0.050908 1.499030
v 0.088424 -0.088293 1.499030
v 0.047459 0.046534 1.499030
v 0.096616 -0.079255 1.499030
v 0.051833 0.041708 1.499030
v 0.103883 -0.069457 1.499030
v 0.055713 0.036476 1.499030
v 0.110155 -0.058994 1.499030
v 0.059062 0.030890 1.499030
v 0.115370 -0.047966 1.499030
v 0.061846 0.025002 1.499030
v 0.119480 -0.036481 1.499030
v 0.064041 0.018869 1.499030
v 0.122444 -0.024648 1.499030
v 0.065623 0.012551 1.499030
v 0.124234 -0.012581 1.499030
v 0.066579 0.006108 1.499030
v 0.124832 -0.000397 1.499030
v 0.066898 -0.000397 1.499030
v 0.124234 0.011787 1.499030
v 0.066579 -0.006902 1.499030
v 0.122444 0.023853 1.499030
v 0.065623 -0.013345 1.499030
v 0.119480 0.035687 1.499030
v 0.064041 -0.019663 1.499030
v 0.115370 0.047172 1.499030
v 0.061846 -0.025796 1.499030
v 0.110155 0.058200 1.499030
v 0.059061 -0.031684 1.499030
v 0.103883 0.068663 1.499030
v 0.055713 -0.037270 1.499030
v 0.096617 0.078461 1.499030
v 0.051833 -0.042502 1.499030
v 0.088425 0.087499 1.499030
v 0.047459 -0.047328 1.499030
v 0.079386 0.095692 1.499030
v 0.042633 -0.051702 1.499030
v 0.069588 0.102958 1.499030
v 0.037401 -0.055582 1.499030
v 0.059125 0.109230 1.499030
v 0.031815 -0.058930 1.499030
v 0.048097 0.114445 1.499030
v 0.025927 -0.061715 1.499030
v 0.036612 0.118555 1.499030
v 0.019794 -0.063909 1.499030
v 0.024779 0.121519 1.499030
v 0.013476 -0.065492 1.499029
v 0.012712 0.123309 1.499029
v 0.007034 -0.066448 1.499029
v 0.000528 0.123907 1.499029
v 0.000528 -0.066767 1.499029
v -0.011656 0.123309 1.499029
v -0.005977 -0.066448 1.499029
v -0.023722 0.121519 1.499029
v -0.012420 -0.065492 1.499029
v -0.035555 0.118555 1.499029
v -0.018738 -0.063909 1.499029
v -0.047041 0.114445 1.499029
v -0.024871 -0.061715 1.499029
v -0.058068 0.109230 1.499029
v -0.030759 -0.058930 1.499029
v -0.068532 0.102958 1.499029
v -0.036345 -0.055582 1.499029
v -0.078330 0.095692 1.499029
v -0.041577 -0.051702 1.499029
v -0.087368 0.087500 1.499029
v -0.046403 -0.047328 1.499029
v -0.095560 0.078461 1.499029
v -0.050777 -0.042502 1.499029
v -0.102827 0.068663 1.499029
v -0.054657 -0.037270 1.499029
v -0.109098 0.058200 1.499029
v -0.058005 -0.031684 1.499029
v -0.114314 0.047172 1.499029
v -0.060790 -0.025796 1.499029
v -0.118424 0.035687 1.499029
v -0.062984 -0.019663 1.499029
v -0.121388 0.023854 1.499029
v -0.064567 -0.013345 1.499029
v -0.123178 0.011787 1.499029
v -0.065523 -0.006902 1.499029
v -0.123776 -0.000397 1.499029
vn 0.000000 0.000000 -1.000000
vn -0.000000 -0.000000 1.000000
vn 0.998800 0.049100 0.000000
vn 0.941500 -0.336900 0.000000
vn -0.243000 0.970000 -0.000000
vn -0.857700 -0.514100 -0.000000
vn 0.336900 -0.941500 0.000000
vn 0.671600 -0.741000 0.000000
vn -0.514100 -0.857700 -0.000000
vn 0.595700 0.803200 0.000000
vn -0.989200 -0.146700 -0.000000
vn -0.904000 0.427600 -0.000000
vn -0.741000 0.671600 -0.000000
vn 0.049100 0.998800 0.000000
vn 0.803200 0.595700 0.000000
vn -0.803200 -0.595700 -0.000000
vn 0.741000 -0.671600 0.000000
vn 0.514100 0.857700 0.000000
vn -0.941500 0.336900 -0.000000
vn -0.049100 -0.998800 -0.000000
vn -0.146700 -0.989200 -0.000000
vn 0.989200 0.146700 0.000000
vn -0.336900 0.941500 -0.000000
vn 0.049100 -0.998800 0.000000
vn 0.970000 0.243000 0.000000
vn 0.904000 -0.427600 0.000000
vn -0.427600 0.904000 -0.000000
vn -0.741000 -0.671600 -0.000000
vn 0.243000 -0.970000 0.000000
vn 0.803200 -0.595700 0.000000
vn -0.595700 -0.803200 -0.000000
vn 0.998800 -0.049100 0.000000
vn 0.427600 0.904000 0.000000
vn -0.998800 -0.049100 -0.000000
vn -0.970000 0.243000 -0.000000
vn -0.671600 0.741000 -0.000000
vn 0.146700 0.989200 0.000000
vn 0.857700 0.514100 0.000000
vn -0.671600 -0.741000 -0.000000
vn 0.857700 -0.514100 0.000000
vn 0.336900 0.941500 0.000000
vn 0.595700 -0.803200 0.000000
vn -0.989200 0.146700 -0.000000
vn 0.146700 -0.989200 0.000000
vn -0.243000 -0.970000 -0.000000
vn 0.941500 0.336900 0.000000
vn -0.904000 -0.427600 -0.000000
vn -0.514100 0.857700 -0.000000
vn 0.904000 0.427600 0.000000
vn -0.595700 0.803200 -0.000000
vn 0.243000 0.970000 0.000000
vn -0.998800 0.049100 -0.000000
vn 0.989200 -0.146700 0.000000
vn 0.514100 -0.857700 0.000000
vn -0.336900 -0.941500 -0.000000
vn -0.941500 -0.336900 -0.000000
vn -0.857700 0.514100 -0.000000
vn -0.146700 0.989200 -0.000000
vn 0.671600 0.741000 0.000000
vn -0.970000 -0.243000 -0.000000
vn 0.427600 -0.904000 0.000000
vn -0.427600 -0.904000 -0.000000
vn 0.970000 -0.243000 0.000000
vn -0.049100 0.998800 -0.000000
vn 0.741000 0.671600 0.000000
vn -0.803200 0.595700 -0.000000
vn 0.671600 0.740900 0.000000
usemtl Material.016
s off
f 19//7 126//7 124//7 21//7
f 93//7 52//7 50//7 95//7
f 83//7 62//7 60//7 85//7
f 73//7 72//7 70//7 75//7
f 63//7 82//7 80//7 65//7
f 53//7 92//7 90//7 55//7
f 127//7 18//7 16//7 129//7
f 43//7 102//7 100//7 45//7
f 117//7 28//7 26//7 119//7
f 33//7 112//7 110//7 35//7
f 9//7 136//7 134//7 11//7
f 107//7 38//7 36//7 109//7
f 97//7 48//7 46//7 99//7
f 23//7 122//7 120//7 25//7
f 87//7 58//7 56//7 89//7
f 13//7 132//7 130//7 15//7
f 77//7 68//7 66//7 79//7
f 67//7 78//7 76//7 69//7
f 57//7 88//7 86//7 59//7
f 131//7 14//7 12//7 133//7
f 47//7 98//7 96//7 49//7
f 121//7 24//7 22//7 123//7
f 37//7 108//7 106//7 39//7
f 111//7 34//7 32//7 113//7
f 101//7 44//7 42//7 103//7
f 27//7 118//7 116//7 29//7
f 17//7 128//7 126//7 19//7
f 91//7 54//7 52//7 93//7
f 81//7 64//7 62//7 83//7
f 71//7 74//7 72//7 73//7
f 61//7 84//7 82//7 63//7
f 135//7 10//7 136//7 9//7
f 51//7 94//7 92//7 53//7
f 125//7 20//7 18//7 127//7
f 41//7 104//7 102//7 43//7
f 115//7 30//7 28//7 117//7
f 105//7 40//7 38//7 107//7
f 31//7 114//7 112//7 33//7
f 95//7 50//7 48//7 97//7
f 21//7 124//7 122//7 23//7
f 85//7 60//7 58//7 87//7
f 11//7 134//7 132//7 13//7
f 75//7 70//7 68//7 77//7
f 65//7 80//7 78//7 67//7
f 55//7 90//7 88//7 57//7
f 129//7 16//7 14//7 131//7
f 45//7 100//7 98//7 47//7
f 119//7 26//7 24//7 121//7
f 35//7 110//7 108//7 37//7
f 109//7 36//7 34//7 111//7
f 99//7 46//7 44//7 101//7
f 25//7 120//7 118//7 27//7
f 15//7 130//7 128//7 17//7
f 89//7 56//7 54//7 91//7
f 79//7 66//7 64//7 81//7
f 69//7 76//7 74//7 71//7
f 59//7 86//7 84//7 61//7
f 133//7 12//7 10//7 135//7
f 49//7 96//7 94//7 51//7
f 123//7 22//7 20//7 125//7
f 39//7 106//7 104//7 41//7
f 113//7 32//7 30//7 115//7
f 103//7 42//7 40//7 105//7
f 29//7 116//7 114//7 31//7
f 221//8 223//8 178//8 180//8
f 147//8 149//8 252//8 254//8
f 211//8 213//8 188//8 190//8
f 201//8 203//8 198//8 200//8
f 191//8 193//8 208//8 210//8
f 181//8 183//8 218//8 220//8
f 255//8 257//8 144//8 146//8
f 171//8 173//8 228//8 230//8
f 245//8 247//8 154//8 156//8
f 161//8 163//8 238//8 240//8
f 137//8 139//8 262//8 264//8
f 235//8 237//8 164//8 166//8
f 225//8 227//8 174//8 176//8
f 151//8 153//8 248//8 250//8
f 215//8 217//8 184//8 186//8
f 141//8 143//8 258//8 260//8
f 205//8 207//8 194//8 196//8
f 195//8 197//8 204//8 206//8
f 185//8 187//8 214//8 216//8
f 259//8 261//8 140//8 142//8
f 175//8 177//8 224//8 226//8
f 249//8 251//8 150//8 152//8
f 165//8 167//8 234//8 236//8
f 239//8 241//8 160//8 162//8
f 229//8 231//8 170//8 172//8
f 155//8 157//8 244//8 246//8
f 145//8 147//8 254//8 256//8
f 219//8 221//8 180//8 182//8
f 209//8 211//8 190//8 192//8
f 199//8 201//8 200//8 202//8
f 189//8 191//8 210//8 212//8
f 263//8 137//8 264//8 138//8
f 179//8 181//8 220//8 222//8
f 253//8 255//8 146//8 148//8
f 169//8 171//8 230//8 232//8
f 243//8 245//8 156//8 158//8
f 233//8 235//8 166//8 168//8
f 159//8 161//8 240//8 242//8
f 223//8 225//8 176//8 178//8
f 149//8 151//8 250//8 252//8
f 213//8 215//8 186//8 188//8
f 139//8 141//8 260//8 262//8
f 203//8 205//8 196//8 198//8
f 193//8 195//8 206//8 208//8
f 183//8 185//8 216//8 218//8
f 257//8 259//8 142//8 144//8
f 173//8 175//8 226//8 228//8
f 247//8 249//8 152//8 154//8
f 163//8 165//8 236//8 238//8
f 237//8 239//8 162//8 164//8
f 227//8 229//8 172//8 174//8
f 153//8 155//8 246//8 248//8
f 143//8 145//8 256//8 258//8
f 217//8 219//8 182//8 184//8
f 207//8 209//8 192//8 194//8
f 197//8 199//8 202//8 204//8
f 187//8 189//8 212//8 214//8
f 261//8 263//8 138//8 140//8
f 177//8 179//8 222//8 224//8
f 251//8 253//8 148//8 150//8
f 167//8 169//8 232//8 234//8
f 241//8 243//8 158//8 160//8
f 231//8 233//8 168//8 170//8
f 157//8 159//8 242//8 244//8
f 72//9 74//9 202//9 200//9
f 15//10 17//10 145//10 143//10
f 108//11 110//11 238//11 236//11
f 18//12 20//12 148//12 146//12
f 33//13 35//13 163//13 161//13
f 54//14 56//14 184//14 182//14
f 51//15 53//15 181//15 179//15
f 90//16 92//16 220//16 218//16
f 69//17 71//17 199//17 197//17
f 126//18 128//18 256//18 254//18
f 87//19 89//19 217//19 215//19
f 105//20 107//20 235//20 233//20
f 123//21 125//21 253//21 251//21
f 20//22 22//22 150//22 148//22
f 56//23 58//23 186//23 184//23
f 92//24 94//24 222//24 220//24
f 25//14 27//14 155//14 153//14
f 128//25 130//25 258//25 256//25
f 38//26 40//26 168//26 166//26
f 43//27 45//27 173//27 171//27
f 74//28 76//28 204//28 202//28
f 61//12 63//12 191//12 189//12
f 110//29 112//29 240//29 238//29
f 79//25 81//25 209//25 207//25
f 97//29 99//29 227//29 225//29
f 115//24 117//24 245//24 243//24
f 133//28 135//28 263//28 261//28
f 40//30 42//30 170//30 168//30
f 76//31 78//31 206//31 204//31
f 17//32 19//32 147//32 145//32
f 112//33 114//33 242//33 240//33
f 22//34 24//34 152//34 150//34
f 35//35 37//35 165//35 163//35
f 58//36 60//36 188//36 186//36
f 53//37 55//37 183//37 181//37
f 9//38 11//38 139//38 137//38
f 94//39 96//39 224//39 222//39
f 71//40 73//40 201//40 199//40
f 130//41 132//41 260//41 258//41
f 89//42 91//42 219//42 217//42
f 107//43 109//43 237//43 235//43
f 125//44 127//44 255//44 253//44
f 24//45 26//45 154//45 152//45
f 60//46 62//46 190//46 188//46
f 96//47 98//47 226//47 224//47
f 27//48 29//48 157//48 155//48
f 132//49 134//49 262//49 260//49
f 42//50 44//50 172//50 170//50
f 45//51 47//51 175//51 173//51
f 78//52 80//52 208//52 206//52
f 63//53 65//53 193//53 191//53
f 114//54 116//54 244//54 242//54
f 81//18 83//18 211//18 209//18
f 99//11 101//11 229//11 227//11
f 117//16 119//16 247//16 245//16
f 136//40 10//40 138//40 264//40
f 135//9 9//9 137//9 263//9
f 44//35 46//35 174//35 172//35
f 19//46 21//46 149//46 147//46
f 80//55 82//55 210//55 208//55
f 116//56 118//56 246//56 244//56
f 26//37 28//37 156//37 154//37
f 37//50 39//50 167//50 165//50
f 62//32 64//32 192//32 190//32
f 55//45 57//45 185//45 183//45
f 98//57 100//57 228//57 226//57
f 73//58 75//58 203//58 201//58
f 134//58 136//58 264//58 262//58
f 91//56 93//56 221//56 219//56
f 109//57 111//57 239//57 237//57
f 127//55 129//55 257//55 255//55
f 28//15 30//15 158//15 156//15
f 64//10 66//10 194//10 192//10
f 11//59 13//59 141//59 139//59
f 100//43 102//43 230//43 228//43
f 10//17 12//17 140//17 138//17
f 29//60 31//60 159//60 157//60
f 46//13 48//13 176//13 174//13
f 47//61 49//61 177//61 175//61
f 82//44 84//44 212//44 210//44
f 65//62 67//62 195//62 193//62
f 118//42 120//42 248//42 246//42
f 83//63 85//63 213//63 211//63
f 101//64 103//64 231//64 229//64
f 119//65 121//65 249//65 247//65
f 12//66 14//66 142//66 140//66
f 48//67 50//67 178//67 176//67
f 84//21 86//21 214//21 212//21
f 21//36 23//36 151//36 149//36
f 120//19 122//19 250//19 248//19
f 30//68 32//68 160//68 158//68
f 39//30 41//30 169//30 167//30
f 66//69 68//69 196//69 194//69
f 57//34 59//34 187//34 185//34
f 102//20 104//20 232//20 230//20
f 75//49 77//49 205//49 203//49
f 93//54 95//54 223//54 221//54
f 111//47 113//47 241//47 239//47
f 129//52 131//52 259//52 257//52
f 32//61 34//61 162//61 160//61
f 68//59 70//59 198//59 196//59
f 13//69 15//69 143//69 141//69
f 104//70 106//70 234//70 232//70
f 14//62 16//62 144//62 142//62
f 31//67 33//67 161//67 159//67
f 50//60 52//60 180//60 178//60
f 49//68 51//68 179//68 177//68
f 86//71 88//71 216//71 214//71
f 67//66 69//66 197//66 195//66
f 122//72 124//72 252//72 250//72
f 85//72 87//72 215//72 213//72
f 103//70 105//70 233//70 231//70
f 121//71 123//71 251//71 249//71
f 16//53 18//53 146//53 144//53
f 52//48 54//48 182//48 180//48
f 88//73 90//73 218//73 216//73
f 23//23 25//23 153//23 151//23
f 124//63 126//63 254//63 252//63
f 34//51 36//51 164//51 162//51
f 41//26 43//26 171//26 169//26
f 70//38 72//38 200//38 198//38
f 59//22 61//22 189//22 187//22
f 106//64 108//64 236//64 234//64
f 77//41 79//41 207//41 205//41
f 95//33 97//33 225//33 223//33
f 113//39 115//39 243//39 241//39
f 131//31 133//31 261//31 259//31
f 36//27 38//27 166//27 164//27
